<?xml version="1.0" encoding="UTF-8"?>
<!DOCTYPE svg PUBLIC "-//W3C//DTD SVG 1.1//EN" "http://www.w3.org/Graphics/SVG/1.1/DTD/svg11.dtd">
<!-- Creator: CorelDRAW -->
<svg xmlns="http://www.w3.org/2000/svg" xml:space="preserve" width="11.811in" height="11.811in" version="1.1" style="shape-rendering:geometricPrecision; text-rendering:geometricPrecision; image-rendering:optimizeQuality; fill-rule:evenodd; clip-rule:evenodd"
viewBox="0 0 11811.02 11811.02"
 xmlns:xlink="http://www.w3.org/1999/xlink"
 xmlns:xodm="http://www.corel.com/coreldraw/odm/2003">
 <defs>
  <style type="text/css">
   <![CDATA[
    .fil3 {fill:none}
    .fil1 {fill:black}
    .fil2 {fill:#B6895B}
    .fil0 {fill:white}
   ]]>
  </style>
   <clipPath id="id0">
    <path d="M5128.93 4519.13l101.09 -254.98c-330.42,-9.05 -561.26,-42.25 -692.53,-101.09 -131.26,-58.84 -197.65,-158.42 -197.65,-301.75 0,-117.69 45.26,-232.35 137.3,-345.51 102.59,-143.33 212.74,-274.6 330.42,-392.28 117.69,-119.19 227.82,-203.68 327.4,-253.47 86,-36.21 203.69,-54.32 353.05,-54.32 365.12,0 780.03,24.14 1241.72,70.91 105.62,6.03 194.63,10.56 265.55,15.09 70.91,3.02 146.35,7.54 229.33,13.58 194.63,0 318.35,3.01 371.15,10.56 52.81,7.54 116.18,25.65 190.11,55.83 49.79,16.59 92.03,43.75 128.24,78.46 73.93,76.95 110.14,197.65 110.14,362.1 0,306.28 -104.11,500.91 -313.83,586.91 -122.21,52.8 -233.86,87.51 -331.93,102.6 -99.57,16.59 -279.12,36.21 -537.12,60.35l-345.31 1141.9 -1926.76 722.69c185.15,-535.41 371.41,-1041.13 559.61,-1517.57z"/>
   </clipPath>
   <clipPath id="id1">
    <path d="M6164.57 5507.81l-131.47 434.77c224.81,0 407.37,-6.04 547.69,-18.11 87.51,-6.04 221.79,-9.06 402.84,-9.06 212.74,0 363.62,22.63 451.13,69.41 87.51,45.26 131.26,126.74 131.26,241.4 0,89.02 -42.24,218.77 -128.25,386.24 -84.49,168.98 -176.53,304.77 -277.61,404.35 -46.77,48.28 -113.16,79.96 -197.65,96.56 -86,16.59 -230.84,24.14 -436.04,24.14l-61.86 0 -110.15 0c-196.14,0 -420.94,9.06 -674.42,27.16 -132.77,446.59 -254.98,789.08 -366.63,1024.46 -111.65,236.87 -248.94,437.54 -411.89,602 -111.65,114.67 -230.84,202.17 -356.07,264.04 -126.74,61.86 -242.91,92.04 -353.05,92.04 -179.55,0 -334.95,-51.3 -466.21,-153.9 -131.26,-102.59 -197.65,-221.79 -197.65,-357.58 0,-164.45 140.32,-677.43 419.44,-1540.45 96.39,-296.43 192.96,-584.66 289.83,-864.78l1926.76 -722.69z"/>
   </clipPath>
 </defs>
 <g id="Layer_x0020_1">
  <metadata id="CorelCorpID_0Corel-Layer"/>
  <rect class="fil0" x="-1.15" y="1.15" width="11811.02" height="11811.02"/>
  <path class="fil1" d="M5128.93 4519.13l101.09 -254.98c-330.42,-9.05 -561.26,-42.25 -692.53,-101.09 -131.26,-58.84 -197.65,-158.42 -197.65,-301.75 0,-117.69 45.26,-232.35 137.3,-345.51 102.59,-143.33 212.74,-274.6 330.42,-392.28 117.69,-119.19 227.82,-203.68 327.4,-253.47 86,-36.21 203.69,-54.32 353.05,-54.32 365.12,0 780.03,24.14 1241.72,70.91 105.62,6.03 194.63,10.56 265.55,15.09 70.91,3.02 146.35,7.54 229.33,13.58 194.63,0 318.35,3.01 371.15,10.56 52.81,7.54 116.18,25.65 190.11,55.83 49.79,16.59 92.03,43.75 128.24,78.46 73.93,76.95 110.14,197.65 110.14,362.1 0,306.28 -104.11,500.91 -313.83,586.91 -122.21,52.8 -233.86,87.51 -331.93,102.6 -99.57,16.59 -279.12,36.21 -537.12,60.35l-345.31 1141.9 -1926.76 722.69c185.15,-535.41 371.41,-1041.13 559.61,-1517.57z"/>
  <g style="clip-path:url(#id0)">
   <g id="_1648238495184">
    <rect class="fil2" transform="matrix(1.21292 -0.454941 0.454941 1.21292 1292.73 7265.68)" width="6995.83" height="3720.19"/>
   </g>
  </g>
  <path class="fil3" d="M5128.93 4519.13l101.09 -254.98c-330.42,-9.05 -561.26,-42.25 -692.53,-101.09 -131.26,-58.84 -197.65,-158.42 -197.65,-301.75 0,-117.69 45.26,-232.35 137.3,-345.51 102.59,-143.33 212.74,-274.6 330.42,-392.28 117.69,-119.19 227.82,-203.68 327.4,-253.47 86,-36.21 203.69,-54.32 353.05,-54.32 365.12,0 780.03,24.14 1241.72,70.91 105.62,6.03 194.63,10.56 265.55,15.09 70.91,3.02 146.35,7.54 229.33,13.58 194.63,0 318.35,3.01 371.15,10.56 52.81,7.54 116.18,25.65 190.11,55.83 49.79,16.59 92.03,43.75 128.24,78.46 73.93,76.95 110.14,197.65 110.14,362.1 0,306.28 -104.11,500.91 -313.83,586.91 -122.21,52.8 -233.86,87.51 -331.93,102.6 -99.57,16.59 -279.12,36.21 -537.12,60.35l-345.31 1141.9 -1926.76 722.69c185.15,-535.41 371.41,-1041.13 559.61,-1517.57z"/>
  <path class="fil1" d="M6164.57 5507.81l-131.47 434.77c224.81,0 407.37,-6.04 547.69,-18.11 87.51,-6.04 221.79,-9.06 402.84,-9.06 212.74,0 363.62,22.63 451.13,69.41 87.51,45.26 131.26,126.74 131.26,241.4 0,89.02 -42.24,218.77 -128.25,386.24 -84.49,168.98 -176.53,304.77 -277.61,404.35 -46.77,48.28 -113.16,79.96 -197.65,96.56 -86,16.59 -230.84,24.14 -436.04,24.14l-61.86 0 -110.15 0c-196.14,0 -420.94,9.06 -674.42,27.16 -132.77,446.59 -254.98,789.08 -366.63,1024.46 -111.65,236.87 -248.94,437.54 -411.89,602 -111.65,114.67 -230.84,202.17 -356.07,264.04 -126.74,61.86 -242.91,92.04 -353.05,92.04 -179.55,0 -334.95,-51.3 -466.21,-153.9 -131.26,-102.59 -197.65,-221.79 -197.65,-357.58 0,-164.45 140.32,-677.43 419.44,-1540.45 96.39,-296.43 192.96,-584.66 289.83,-864.78l1926.76 -722.69z"/>
  <g style="clip-path:url(#id1)">
   <g id="_1648238487552">
    <rect class="fil2" transform="matrix(1.21292 -0.454941 0.454941 1.21292 961.221 7459.48)" width="6995.83" height="3720.19"/>
   </g>
  </g>
  <path class="fil3" d="M6164.57 5507.81l-131.47 434.77c224.81,0 407.37,-6.04 547.69,-18.11 87.51,-6.04 221.79,-9.06 402.84,-9.06 212.74,0 363.62,22.63 451.13,69.41 87.51,45.26 131.26,126.74 131.26,241.4 0,89.02 -42.24,218.77 -128.25,386.24 -84.49,168.98 -176.53,304.77 -277.61,404.35 -46.77,48.28 -113.16,79.96 -197.65,96.56 -86,16.59 -230.84,24.14 -436.04,24.14l-61.86 0 -110.15 0c-196.14,0 -420.94,9.06 -674.42,27.16 -132.77,446.59 -254.98,789.08 -366.63,1024.46 -111.65,236.87 -248.94,437.54 -411.89,602 -111.65,114.67 -230.84,202.17 -356.07,264.04 -126.74,61.86 -242.91,92.04 -353.05,92.04 -179.55,0 -334.95,-51.3 -466.21,-153.9 -131.26,-102.59 -197.65,-221.79 -197.65,-357.58 0,-164.45 140.32,-677.43 419.44,-1540.45 96.39,-296.43 192.96,-584.66 289.83,-864.78l1926.76 -722.69z"/>
 </g>
</svg>
